<svg xmlns="http://www.w3.org/2000/svg" viewBox="0 0 64 64" id="DevilTrident"><path d="M60.94 64c-.78 0-1.57-.3-2.16-.89L32.26 36.58c-5.66 4.5-13.84 4.09-19.01-1.09l-6.91-6.91-.6.6a.968.968 0 0 1-1.58-.3L.09 19.27A.972.972 0 0 1 1.36 18l9.61 4.07a.968.968 0 0 1 .3 1.58l-.6.6 6.91 6.91c2.77 2.77 7.12 3.15 10.32 1.04L14.64 18.97l-.6.6a.968.968 0 0 1-1.58-.3l-1.9-4.48c-.2-.31-.34-.64-.42-.98L8.38 9.66a.985.985 0 0 1 .21-1.07c.28-.28.7-.36 1.06-.21l4.14 1.76c.35.08.68.22.99.42l4.48 1.9a.968.968 0 0 1 .3 1.58l-.6.6 13.25 13.25c2.11-3.2 1.73-7.55-1.04-10.32l-6.91-6.91-.6.6a.968.968 0 0 1-1.58-.3L18 1.35A.972.972 0 0 1 19.27.08l9.61 4.07a.968.968 0 0 1 .3 1.58l-.6.6 6.91 6.91c5.17 5.17 5.58 13.36 1.09 19.01l26.53 26.53A3.06 3.06 0 0 1 60.94 64zM32.31 34.29c.25 0 .5.09.69.28l27.16 27.16c.44.44 1.15.44 1.58 0 .44-.44.44-1.15 0-1.58L34.58 33a.966.966 0 0 1-.03-1.34c4.43-4.9 4.24-12.38-.42-17.05l-7.6-7.59a.993.993 0 0 1 0-1.38l.27-.27-6.07-2.57 2.58 6.08.27-.27c.38-.38.99-.38 1.37 0l7.6 7.59c3.74 3.73 3.96 9.79.5 13.8a1 1 0 0 1-.7.34c-.3.02-.53-.09-.72-.28L16.91 15.33a.966.966 0 0 1 0-1.37l.27-.27-3.25-1.38c-.06-.03-.12-.06-.18-.1a1.07 1.07 0 0 0-.43-.18.664.664 0 0 1-.2-.06l-2.02-.86.86 2.02c.03.07.05.13.06.2.03.15.09.3.18.43.04.06.07.11.1.18l1.38 3.25.27-.27c.38-.38.99-.38 1.37 0l14.72 14.72c.19.19.29.45.28.72-.01.27-.13.52-.34.7-4 3.45-10.06 3.23-13.8-.5L8.6 24.95a.966.966 0 0 1 0-1.37l.27-.27-6.07-2.58 2.58 6.07.27-.27a.993.993 0 0 1 1.38 0l7.59 7.6c4.66 4.66 12.15 4.85 17.05.42.18-.17.41-.26.64-.26z" fill="#ff0005" class="color000000 svgShape"></path></svg>