<?xml version="1.0" encoding="UTF-8" standalone="no" ?>
<!DOCTYPE svg PUBLIC "-//W3C//DTD SVG 1.1//EN" "http://www.w3.org/Graphics/SVG/1.1/DTD/svg11.dtd">
<svg xmlns="http://www.w3.org/2000/svg" xmlns:xlink="http://www.w3.org/1999/xlink" version="1.1" width="1080" height="1080" viewBox="0 0 1080 1080" xml:space="preserve">
<desc>Created with Fabric.js 5.2.4</desc>
<defs>
</defs>
<g transform="matrix(1 0 0 1 540 540)" id="1644de6c-701d-49cd-bf52-b561a3ad4024"  >
</g>
<g transform="matrix(1 0 0 1 540 540)" id="00afa955-5d98-4879-8150-fd0168409b81"  >
<rect style="stroke: none; stroke-width: 1; stroke-dasharray: none; stroke-linecap: butt; stroke-dashoffset: 0; stroke-linejoin: miter; stroke-miterlimit: 4; fill: rgb(255,255,255); fill-rule: nonzero; opacity: 1; visibility: hidden;" vector-effect="non-scaling-stroke"  x="-540" y="-540" rx="0" ry="0" width="1080" height="1080" />
</g>
<g transform="matrix(13.32 0 0 13.32 539.21 546.83)"  >
<path style="stroke: rgb(0,0,0); stroke-width: 6; stroke-dasharray: none; stroke-linecap: butt; stroke-dashoffset: 0; stroke-linejoin: miter; stroke-miterlimit: 4; fill: rgb(255,0,5); fill-rule: nonzero; opacity: 1;" vector-effect="non-scaling-stroke"  transform=" translate(-32.01, -32)" d="M 60.94 64 C 60.16 64 59.37 63.7 58.78 63.11 L 32.26 36.58 C 26.599999999999998 41.08 18.419999999999998 40.67 13.249999999999996 35.489999999999995 L 6.339999999999996 28.579999999999995 L 5.739999999999997 29.179999999999996 C 5.513409764982002 29.40993205370324 5.187109588287509 29.511777070534524 4.869957288707277 29.451558279474984 C 4.552804989127045 29.391339488415447 4.286543131239026 29.176982692865966 4.159999999999997 28.879999999999995 L 0.09 19.27 C -0.06046684700453697 18.906781517688714 0.022688462187179043 18.488688350568463 0.30068840637782124 18.21068840637782 C 0.5786883505684635 17.93268846218718 0.9967815176887139 17.849533152995463 1.3599999999999997 18 L 10.969999999999999 22.07 C 11.266982692865968 22.19654313123903 11.481339488415449 22.462804989127047 11.541558279474987 22.77995728870728 C 11.601777070534524 23.09710958828751 11.499932053703244 23.423409764982004 11.27 23.65 L 10.67 24.25 L 17.58 31.16 C 20.349999999999998 33.93 24.7 34.31 27.9 32.2 L 14.64 18.97 L 14.040000000000001 19.57 C 13.813409764982007 19.799932053703245 13.487109588287513 19.90177707053453 13.16995728870728 19.841558279474988 C 12.85280498912705 19.78133948841545 12.58654313123903 19.56698269286597 12.46 19.27 L 10.56 14.79 C 10.360000000000001 14.479999999999999 10.22 14.149999999999999 10.14 13.809999999999999 L 8.38 9.66 C 8.22819302050555 9.293582363999453 8.310961136546563 8.871859106076194 8.590000000000002 8.59 C 8.870000000000001 8.31 9.290000000000001 8.23 9.650000000000002 8.379999999999999 L 13.790000000000003 10.139999999999999 C 14.140000000000002 10.219999999999999 14.470000000000002 10.36 14.780000000000003 10.559999999999999 L 19.260000000000005 12.459999999999999 C 19.556982692865976 12.586543131239027 19.771339488415457 12.852804989127048 19.831558279474994 13.169957288707279 C 19.891777070534534 13.487109588287511 19.78993205370325 13.813409764982005 19.560000000000006 14.04 L 18.960000000000004 14.639999999999999 L 32.21000000000001 27.89 C 34.32000000000001 24.69 33.940000000000005 20.34 31.17000000000001 17.57 L 24.26000000000001 10.66 L 23.660000000000007 11.26 C 23.433409764982013 11.489932053703244 23.107109588287518 11.591777070534528 22.789957288707285 11.53155827947499 C 22.472804989127056 11.471339488415452 22.206543131239034 11.25698269286597 22.080000000000005 10.959999999999999 L 18 1.35 C 17.849533152995463 0.9867815176887145 17.93268846218718 0.5686883505684638 18.21068840637782 0.29068840637782145 C 18.488688350568463 0.012688462187179006 18.906781517688714 -0.07046684700453687 19.27 0.0800000000000003 L 28.88 4.15 C 29.17698269286597 4.27654313123903 29.39133948841545 4.542804989127048 29.451558279474988 4.85995728870728 C 29.511777070534528 5.177109588287512 29.409932053703244 5.503409764982006 29.18 5.73 L 28.58 6.33 L 35.489999999999995 13.24 C 40.66 18.41 41.06999999999999 26.6 36.58 32.25 L 63.11 58.78 C 63.98328189559573 59.65630804326045 64.24298326197807 60.972246022725415 63.768089332124525 62.114617595921494 C 63.29319540227098 63.256989169117574 62.1771483430777 64.0010164046172 60.940000000000005 64 z M 32.31 34.29 C 32.56 34.29 32.81 34.38 33 34.57 L 60.16 61.730000000000004 C 60.599999999999994 62.17 61.309999999999995 62.17 61.739999999999995 61.730000000000004 C 62.17999999999999 61.290000000000006 62.17999999999999 60.580000000000005 61.739999999999995 60.150000000000006 L 34.58 33 C 34.21134791572593 32.63404888712326 34.198094947858955 32.04208298906514 34.55 31.66 C 38.98 26.759999999999998 38.79 19.28 34.129999999999995 14.61 L 26.529999999999994 7.02 C 26.158142846425886 6.635150947100129 26.158142846425886 6.024849052899871 26.529999999999994 5.640000000000001 L 26.799999999999994 5.369999999999999 L 20.729999999999993 2.7999999999999994 L 23.309999999999995 8.879999999999999 L 23.579999999999995 8.61 C 23.959999999999994 8.229999999999999 24.569999999999993 8.229999999999999 24.949999999999996 8.61 L 32.55 16.2 C 36.29 19.93 36.51 25.99 33.05 30 C 32.87214474967723 30.203199004112914 32.61966930594219 30.325829933927082 32.349999999999994 30.34 C 32.05 30.36 31.819999999999993 30.25 31.629999999999995 30.06 L 16.91 15.33 C 16.727653286344633 15.148684861631038 16.625124805010067 14.902148796191366 16.625124805010067 14.645 C 16.625124805010067 14.387851203808635 16.727653286344633 14.141315138368963 16.91 13.96 L 17.18 13.690000000000001 L 13.93 12.310000000000002 C 13.87 12.280000000000003 13.81 12.250000000000002 13.75 12.210000000000003 C 13.621637100064897 12.119127536277048 13.474820062698651 12.057669241565597 13.32 12.030000000000003 C 13.250586195844713 12.020672999276336 13.183085102950011 12.000422671407925 13.120000000000001 11.970000000000002 L 11.100000000000001 11.110000000000003 L 11.96 13.130000000000003 C 11.99 13.200000000000003 12.010000000000002 13.260000000000003 12.020000000000001 13.330000000000002 C 12.05 13.480000000000002 12.110000000000001 13.630000000000003 12.200000000000001 13.760000000000002 C 12.24 13.820000000000002 12.270000000000001 13.870000000000001 12.3 13.940000000000001 L 13.68 17.19 L 13.95 16.92 C 14.33 16.540000000000003 14.94 16.540000000000003 15.32 16.92 L 30.04 31.64 C 30.23 31.830000000000002 30.33 32.09 30.32 32.36 C 30.31 32.63 30.19 32.88 29.98 33.06 C 25.98 36.510000000000005 19.92 36.29 16.18 32.56 L 8.6 24.95 C 8.417653286344631 24.768684861631037 8.315124805010065 24.522148796191367 8.315124805010065 24.265 C 8.315124805010065 24.007851203808634 8.417653286344631 23.76131513836896 8.6 23.58 L 8.87 23.31 L 2.799999999999999 20.729999999999997 L 5.379999999999999 26.799999999999997 L 5.649999999999999 26.529999999999998 C 6.03484905289987 26.15814284642589 6.645150947100127 26.15814284642589 7.029999999999998 26.529999999999998 L 14.619999999999997 34.129999999999995 C 19.279999999999998 38.78999999999999 26.769999999999996 38.98 31.669999999999998 34.55 C 31.849999999999998 34.379999999999995 32.08 34.29 32.309999999999995 34.29 z" stroke-linecap="round" />
</g>
</svg>